<svg width="620" height="310" viewBox="0 0 620 310" fill="none" xmlns="http://www.w3.org/2000/svg">
<path d="M1 13.6054C93.9571 81.0582 114.632 211.096 47.1796 304.053M5.07315 118.613C109.129 119.266 192.954 204.151 192.3 308.207M184.469 0.61377C175.285 89.6847 95.6329 154.445 6.56201 145.261M300.918 131.455C218.733 142.216 143.385 84.314 132.625 2.12848M101.444 268.4C172.965 214.334 274.773 228.483 328.84 300.004M274.472 308.704C259.932 229.025 312.738 152.645 392.417 138.104M425.963 308.967C354.142 261.664 334.267 165.094 381.571 93.2734M469.512 283.905C389.328 209.606 384.557 84.3731 458.856 4.18885M367.88 56.1297C471.284 20.668 583.856 75.7459 619.318 179.15M604.506 47.0929C605.312 156.405 517.349 245.673 408.037 246.479M464.752 190.952C403.243 242.133 311.89 233.761 260.71 172.252M127.485 279.818C130.101 185.147 208.968 110.522 303.639 113.139M519.355 86.7929V228.101M392.598 86.7929V198.39M42.0752 289.191H95.6808V175.822H96.7674L112.342 289.191H168.483L146.751 149.019L168.483 21.1627H112.704L96.7674 124.752H95.6808V21.1627H42.0752V289.191ZM325.913 246.089H286.433L325.551 57.0205V21.1627H226.308V64.2645H266.512L226.67 254.782V289.191H325.913V246.089ZM360.336 21.1627L329.187 289.191H383.155L385.69 239.207H399.454L402.351 289.191H457.768L426.257 21.1627H360.336ZM578.256 79.1147C578.256 39.2727 555.8 18.2651 518.493 18.2651C480.824 18.2651 458.73 39.2727 458.73 79.1147V231.239C458.73 271.081 480.824 292.088 518.493 292.088C555.8 292.088 578.256 271.081 578.256 231.239V79.1147Z" stroke="#FFFCF4"/>
</svg>
