<svg width="538" height="276" viewBox="0 0 538 276" fill="none" xmlns="http://www.w3.org/2000/svg">
<path d="M537.256 62.1148C537.256 22.2727 514.8 1.26514 477.493 1.26514C439.824 1.26514 417.73 22.2727 417.73 62.1148M417.73 214.239C417.73 254.081 439.824 275.089 477.493 275.089C514.8 275.089 537.256 254.081 537.256 214.239M319.336 3.66274H318.891L318.839 4.10502L287.69 272.133L287.625 272.691H288.187H342.155H342.63L342.654 272.216L345.165 222.707H357.982L360.852 272.22L360.879 272.691H361.351H416.768H417.33L417.265 272.133L385.753 4.10436L385.701 3.66274H385.257H319.336ZM344.69 221.707H344.215L344.191 222.182L341.679 271.691H288.748L319.781 4.66274H384.812L416.206 271.691H361.823L358.953 222.178L358.926 221.707H358.454H344.69ZM537.756 62.1148C537.756 42.1012 532.114 26.746 521.717 16.3949C511.321 6.04435 496.238 0.765137 477.493 0.765137C458.568 0.765137 443.484 6.04377 433.132 16.3956C422.78 26.7477 417.23 42.1034 417.23 62.1148V214.239C417.23 234.25 422.78 249.606 433.132 259.958C443.484 270.31 458.568 275.589 477.493 275.589C496.238 275.589 511.321 270.309 521.717 259.959C532.114 249.608 537.756 234.252 537.756 214.239V62.1148ZM477.493 1.76514C496.055 1.76514 510.853 6.98972 521.012 17.1035C531.17 27.2167 536.756 42.2863 536.756 62.1148V214.239C536.756 234.067 531.17 249.137 521.012 259.25C510.853 269.364 496.055 274.589 477.493 274.589C458.749 274.589 443.952 269.363 433.839 259.251C423.727 249.139 418.23 234.07 418.23 214.239V62.1148C418.23 42.2841 423.727 27.215 433.839 17.1027C443.952 6.9903 458.749 1.76514 477.493 1.76514ZM0.575195 272.191V272.691H1.0752H54.6808H55.1808V272.191V159.322H55.3314L70.8467 272.259L70.906 272.691H71.342H127.483H128.067L127.977 272.114L106.258 132.023L127.976 4.24653L128.075 3.66274H127.483H71.7043H71.2753L71.2101 4.08672L55.3385 107.252H55.1808V4.16274V3.66274H54.6808H1.0752H0.575195V4.16274V272.191ZM285.413 229.089V228.589H284.913H246.047L285.04 40.1219L285.051 40.0717V40.0206V4.16274V3.66274H284.551H185.308H184.808V4.16274V47.2646V47.7646H185.308H224.897L185.181 237.68L185.17 237.73V237.782V272.191V272.691H185.67H284.913H285.413V272.191V229.089Z" stroke="#FFFCF4"/>
<line x1="478.355" y1="69.793" x2="478.355" y2="211.101" stroke="#FFFCF4"/>
<line x1="351.598" y1="69.793" x2="351.598" y2="181.391" stroke="#FFFCF4"/>
</svg>
