<svg width="620" height="320" viewBox="0 0 620 320" fill="none" xmlns="http://www.w3.org/2000/svg">
<path d="M1 16.6055C93.9571 84.0583 114.632 214.096 47.1796 307.053" stroke="#FFFCF4"/>
<path d="M5.07324 121.613C109.13 122.266 192.954 207.151 192.3 311.207" stroke="#FFFCF4"/>
<path d="M184.469 3.61384C175.284 92.6848 95.6325 157.445 6.56157 148.261" stroke="#FFFCF4"/>
<path d="M300.918 134.455C218.733 145.216 143.385 87.314 132.625 5.12842" stroke="#FFFCF4"/>
<path d="M101.444 271.401C172.965 217.334 274.774 231.484 328.84 303.004" stroke="#FFFCF4"/>
<path d="M274.472 311.704C259.932 232.025 312.738 155.645 392.417 141.104" stroke="#FFFCF4"/>
<path d="M425.964 311.967C354.143 264.664 334.268 168.094 381.571 96.2734" stroke="#FFFCF4"/>
<path d="M469.512 286.905C389.328 212.607 384.557 87.3732 458.856 7.18896" stroke="#FFFCF4"/>
<path d="M367.88 59.1295C471.284 23.6679 583.856 78.7458 619.318 182.149" stroke="#FFFCF4"/>
<path d="M604.507 50.0931C605.312 159.406 517.35 248.674 408.037 249.479" stroke="#FFFCF4"/>
<path d="M464.753 193.952C403.244 245.133 311.891 236.761 260.71 175.252" stroke="#FFFCF4"/>
<path d="M127.484 282.818C130.101 188.147 208.968 113.522 303.638 116.139" stroke="#FFFCF4"/>
</svg>
